<svg width="17" height="12" viewBox="0 0 17 12" fill="none" xmlns="http://www.w3.org/2000/svg">
<path d="M16.3682 10.9922C16.3682 11.1328 16.3421 11.2656 16.29 11.3906C16.238 11.5104 16.165 11.6172 16.0713 11.7109C15.9827 11.7995 15.8786 11.8698 15.7588 11.9219C15.639 11.974 15.5088 12 15.3682 12H7.36816C7.22754 12 7.09733 11.974 6.97754 11.9219C6.85775 11.8698 6.75098 11.7995 6.65723 11.7109C6.56868 11.6172 6.49837 11.5104 6.44629 11.3906C6.39421 11.2708 6.36816 11.1406 6.36816 11V10H1.32129C1.19108 10 1.06608 9.97656 0.946289 9.92969C0.831706 9.8776 0.730143 9.8099 0.641602 9.72656C0.558268 9.63802 0.49056 9.53646 0.438477 9.42188C0.391602 9.30208 0.368164 9.17708 0.368164 9.04688C0.368164 8.86458 0.39681 8.68229 0.454102 8.5C0.516602 8.31771 0.610352 8.15885 0.735352 8.02344L2.36816 6.30469V0H13.3682V4H15.3682C15.5036 4 15.6312 4.02604 15.751 4.07812C15.8708 4.13021 15.9749 4.20052 16.0635 4.28906C16.1572 4.3776 16.2301 4.48177 16.2822 4.60156C16.3395 4.72135 16.3682 4.84896 16.3682 4.98438V10.9922ZM6.36816 9V7H3.08691L1.47754 8.69531C1.44629 8.73177 1.42025 8.78125 1.39941 8.84375C1.38379 8.90104 1.37337 8.95312 1.36816 9H6.36816ZM6.36816 5C6.36816 4.85938 6.39421 4.72917 6.44629 4.60938C6.49837 4.48958 6.56868 4.38542 6.65723 4.29688C6.75098 4.20312 6.85775 4.13021 6.97754 4.07812C7.09733 4.02604 7.22754 4 7.36816 4H12.3682V1H3.36816V6H6.36816V5ZM15.3682 11V5H7.36816V11H15.3682ZM10.3682 9H12.3682V10H10.3682V9Z" fill="#323130"/>
</svg>
