<svg width="16" height="15" viewBox="0 0 16 15" fill="none" xmlns="http://www.w3.org/2000/svg">
<path d="M14 8H15V15H14V8ZM15 3H14V0H15V3ZM14.5 4C14.7083 4 14.9036 4.03906 15.0859 4.11719C15.2682 4.19531 15.4271 4.30208 15.5625 4.4375C15.6979 4.57292 15.8047 4.73177 15.8828 4.91406C15.9609 5.09635 16 5.29167 16 5.5C16 5.70833 15.9609 5.90365 15.8828 6.08594C15.8047 6.26823 15.6979 6.42708 15.5625 6.5625C15.4271 6.69792 15.2682 6.80469 15.0859 6.88281C14.9036 6.96094 14.7083 7 14.5 7C14.2917 7 14.0964 6.96094 13.9141 6.88281C13.7318 6.80469 13.5729 6.69792 13.4375 6.5625C13.3021 6.42708 13.1953 6.26823 13.1172 6.08594C13.0391 5.90365 13 5.70833 13 5.5C13 5.29167 13.0391 5.09635 13.1172 4.91406C13.1953 4.73177 13.3021 4.57292 13.4375 4.4375C13.5729 4.30208 13.7318 4.19531 13.9141 4.11719C14.0964 4.03906 14.2917 4 14.5 4ZM0 4H11V11H0V4ZM1 10H10V5H1V10ZM10 0H11V3H0V0H1V2H10V0ZM0 12H11V15H10V13H1V15H0V12Z" fill="#323130"/>
</svg>
