<svg width="16" height="16" viewBox="0 0 16 16" fill="none" xmlns="http://www.w3.org/2000/svg">
<path d="M15.9058 16H0.905762L3.90576 7H7.90576V4.95312C7.6141 4.89062 7.34587 4.78385 7.10107 4.63281C6.85628 4.48177 6.64535 4.29948 6.46826 4.08594C6.29118 3.86719 6.15316 3.6224 6.0542 3.35156C5.95524 3.08073 5.90576 2.79688 5.90576 2.5C5.90576 2.15625 5.97087 1.83333 6.10107 1.53125C6.23128 1.22917 6.40837 0.966146 6.63232 0.742188C6.86149 0.513021 7.12712 0.333333 7.4292 0.203125C7.73649 0.0677083 8.06201 0 8.40576 0C8.74951 0 9.07243 0.0677083 9.37451 0.203125C9.6766 0.333333 9.93962 0.513021 10.1636 0.742188C10.3927 0.966146 10.5724 1.22917 10.7026 1.53125C10.8381 1.83333 10.9058 2.15625 10.9058 2.5C10.9058 2.79688 10.8563 3.08073 10.7573 3.35156C10.6584 3.6224 10.5203 3.86719 10.3433 4.08594C10.1662 4.29948 9.95524 4.48177 9.71045 4.63281C9.46566 4.78385 9.19743 4.89062 8.90576 4.95312V7H12.9058L15.9058 16ZM6.90576 2.5C6.90576 2.70833 6.94482 2.90365 7.02295 3.08594C7.10107 3.26823 7.20785 3.42708 7.34326 3.5625C7.47868 3.69792 7.63753 3.80469 7.81982 3.88281C8.00212 3.96094 8.19743 4 8.40576 4C8.6141 4 8.80941 3.96094 8.9917 3.88281C9.17399 3.80469 9.33285 3.69792 9.46826 3.5625C9.60368 3.42708 9.71045 3.26823 9.78857 3.08594C9.8667 2.90365 9.90576 2.70833 9.90576 2.5C9.90576 2.29167 9.8667 2.09635 9.78857 1.91406C9.71045 1.73177 9.60368 1.57292 9.46826 1.4375C9.33285 1.30208 9.17399 1.19531 8.9917 1.11719C8.80941 1.03906 8.6141 1 8.40576 1C8.19743 1 8.00212 1.03906 7.81982 1.11719C7.63753 1.19531 7.47868 1.30208 7.34326 1.4375C7.20785 1.57292 7.10107 1.73177 7.02295 1.91406C6.94482 2.09635 6.90576 2.29167 6.90576 2.5ZM2.29639 15H14.5151L12.187 8H8.90576V11.75C8.90576 11.7969 8.88493 11.8385 8.84326 11.875C8.8068 11.9062 8.75993 11.9323 8.70264 11.9531C8.65055 11.9688 8.59587 11.9818 8.53857 11.9922C8.48649 11.9974 8.44222 12 8.40576 12C8.3693 12 8.32243 11.9974 8.26514 11.9922C8.21305 11.9818 8.15837 11.9688 8.10107 11.9531C8.04899 11.9323 8.00212 11.9062 7.96045 11.875C7.92399 11.8385 7.90576 11.7969 7.90576 11.75V8H4.62451L2.29639 15Z" fill="#323130"/>
</svg>
