<svg width="16" height="13" viewBox="0 0 16 13" fill="none" xmlns="http://www.w3.org/2000/svg">
<path d="M16 0V8.45312C15.849 8.33333 15.6901 8.23177 15.5234 8.14844C15.3568 8.0599 15.1823 7.98438 15 7.92188V1.55469L8 5.0625L1 1.55469V9H6.5V10H0V0H16ZM8 3.9375L13.8828 1H2.11719L8 3.9375ZM8.71094 9.5L10.4766 11.2734L9.77344 11.9766L7.28906 9.5L9.77344 7.02344L10.4766 7.72656L8.71094 9.5ZM11.7109 9C11.9714 9 12.2578 8.99479 12.5703 8.98438C12.888 8.96875 13.2057 8.96875 13.5234 8.98438C13.8411 9 14.1484 9.03906 14.4453 9.10156C14.7422 9.15885 15.0052 9.26302 15.2344 9.41406C15.4688 9.5599 15.6536 9.76042 15.7891 10.0156C15.9297 10.2708 16 10.599 16 11C16 11.276 15.9453 11.5365 15.8359 11.7812C15.7318 12.0208 15.5885 12.2318 15.4062 12.4141C15.2292 12.5911 15.0182 12.7344 14.7734 12.8438C14.5286 12.9479 14.2708 13 14 13V12C14.1406 12 14.2708 11.974 14.3906 11.9219C14.5104 11.8698 14.6146 11.7995 14.7031 11.7109C14.7969 11.6172 14.8698 11.5104 14.9219 11.3906C14.974 11.2708 15 11.1406 15 11C15 10.8594 14.974 10.7292 14.9219 10.6094C14.8698 10.4896 14.7969 10.3854 14.7031 10.2969C14.6146 10.2031 14.5104 10.1302 14.3906 10.0781C14.2708 10.026 14.1406 10 14 10H11.7109L12.9766 11.2734L12.2734 11.9766L9.79688 9.5L12.2734 7.02344L12.9766 7.72656L11.7109 9Z" fill="#323130"/>
</svg>
