<svg width="14" height="16" viewBox="0 0 14 16" fill="none" xmlns="http://www.w3.org/2000/svg">
<path d="M7.5 8H6.5V0H7.5V8ZM9.15625 2.34375C9.875 2.57292 10.5312 2.90625 11.125 3.34375C11.724 3.78125 12.2344 4.29427 12.6562 4.88281C13.0833 5.47135 13.4141 6.11719 13.6484 6.82031C13.8828 7.52344 14 8.25 14 9C14 9.64583 13.9167 10.2682 13.75 10.8672C13.5833 11.4609 13.3464 12.0182 13.0391 12.5391C12.737 13.0547 12.3724 13.526 11.9453 13.9531C11.5234 14.375 11.0521 14.7396 10.5312 15.0469C10.0156 15.349 9.45833 15.5833 8.85938 15.75C8.26562 15.9167 7.64583 16 7 16C6.35417 16 5.73177 15.9167 5.13281 15.75C4.53906 15.5833 3.98177 15.349 3.46094 15.0469C2.94531 14.7396 2.47396 14.375 2.04688 13.9531C1.625 13.526 1.26042 13.0547 0.953125 12.5391C0.651042 12.0182 0.416667 11.4609 0.25 10.8672C0.0833333 10.2682 0 9.64583 0 9C0 8.25 0.117188 7.52344 0.351562 6.82031C0.585938 6.11719 0.914062 5.47135 1.33594 4.88281C1.76302 4.29427 2.27344 3.78125 2.86719 3.34375C3.46615 2.90625 4.125 2.57292 4.84375 2.34375L5.15625 3.28906C4.53646 3.49219 3.97135 3.78125 3.46094 4.15625C2.95052 4.53125 2.51302 4.96875 2.14844 5.46875C1.78385 5.96875 1.5 6.52083 1.29688 7.125C1.09896 7.72396 1 8.34896 1 9C1 9.55208 1.07031 10.0833 1.21094 10.5938C1.35677 11.1042 1.5599 11.5833 1.82031 12.0312C2.08073 12.474 2.39323 12.8776 2.75781 13.2422C3.1224 13.6068 3.52604 13.9193 3.96875 14.1797C4.41667 14.4401 4.89583 14.6432 5.40625 14.7891C5.91667 14.9297 6.44792 15 7 15C7.55208 15 8.08333 14.9297 8.59375 14.7891C9.10417 14.6432 9.58073 14.4401 10.0234 14.1797C10.4714 13.9193 10.8776 13.6068 11.2422 13.2422C11.6068 12.8776 11.9193 12.474 12.1797 12.0312C12.4401 11.5833 12.6406 11.1042 12.7812 10.5938C12.9271 10.0833 13 9.55208 13 9C13 8.34896 12.8984 7.72396 12.6953 7.125C12.4974 6.52083 12.2161 5.96875 11.8516 5.46875C11.487 4.96875 11.0495 4.53125 10.5391 4.15625C10.0286 3.78125 9.46354 3.49219 8.84375 3.28906L9.15625 2.34375Z" fill="#323130"/>
</svg>
