<svg width="16" height="16" viewBox="0 0 16 16" fill="none" xmlns="http://www.w3.org/2000/svg">
<path d="M1.13672 12C1.87109 12 2.57943 11.9062 3.26172 11.7188C3.94401 11.526 4.57943 11.2552 5.16797 10.9062C5.76172 10.5573 6.30078 10.1406 6.78516 9.65625C7.27474 9.16667 7.69401 8.6276 8.04297 8.03906C8.39193 7.44531 8.66016 6.80729 8.84766 6.125C9.04036 5.44271 9.13672 4.73438 9.13672 4C9.13672 3.30729 9.04818 2.6276 8.87109 1.96094C8.69401 1.29427 8.4362 0.661458 8.09766 0.0625C8.76432 0.145833 9.40234 0.304688 10.0117 0.539062C10.6211 0.773438 11.1862 1.07292 11.707 1.4375C12.2279 1.80208 12.6992 2.22396 13.1211 2.70312C13.543 3.17708 13.9023 3.69531 14.1992 4.25781C14.5013 4.8151 14.7331 5.41146 14.8945 6.04688C15.056 6.67708 15.1367 7.32812 15.1367 8C15.1367 8.73438 15.0404 9.44271 14.8477 10.125C14.6602 10.8073 14.3919 11.4453 14.043 12.0391C13.694 12.6276 13.2747 13.1667 12.7852 13.6562C12.3008 14.1406 11.7617 14.5573 11.168 14.9062C10.5794 15.2552 9.94401 15.526 9.26172 15.7188C8.57943 15.9062 7.87109 16 7.13672 16C6.41797 16 5.71745 15.9062 5.03516 15.7188C4.35286 15.5312 3.70964 15.263 3.10547 14.9141C2.50651 14.5599 1.95703 14.1328 1.45703 13.6328C0.957031 13.1276 0.529948 12.5625 0.175781 11.9375C0.33724 11.9583 0.496094 11.974 0.652344 11.9844C0.813802 11.9948 0.97526 12 1.13672 12ZM7.13672 15C7.78255 15 8.40234 14.9167 8.99609 14.75C9.59505 14.5833 10.1523 14.349 10.668 14.0469C11.1888 13.7396 11.6602 13.375 12.082 12.9531C12.5091 12.526 12.8737 12.0547 13.1758 11.5391C13.4831 11.0182 13.7201 10.4609 13.8867 9.86719C14.0534 9.26823 14.1367 8.64583 14.1367 8C14.1367 7.29167 14.0326 6.60677 13.8242 5.94531C13.6159 5.27865 13.3216 4.66406 12.9414 4.10156C12.5664 3.53385 12.1107 3.02865 11.5742 2.58594C11.0378 2.14323 10.4414 1.78906 9.78516 1.52344C10.0195 2.33073 10.1367 3.15625 10.1367 4C10.1367 4.76042 10.0456 5.4974 9.86328 6.21094C9.68099 6.91927 9.42057 7.59115 9.08203 8.22656C8.74349 8.85677 8.33464 9.44271 7.85547 9.98438C7.3763 10.5208 6.84245 10.9948 6.25391 11.4062C5.66536 11.8125 5.02734 12.1484 4.33984 12.4141C3.65755 12.6745 2.9388 12.849 2.18359 12.9375C2.85026 13.6042 3.60547 14.1146 4.44922 14.4688C5.29818 14.8229 6.19401 15 7.13672 15Z" fill="white"/>
</svg>
