<svg width="17" height="12" viewBox="0 0 17 12" fill="none" xmlns="http://www.w3.org/2000/svg">
<path d="M10.5991 9V9.33594L11.396 10.4297C11.4429 10.4974 11.4819 10.5885 11.5132 10.7031C11.5444 10.8177 11.5601 10.9167 11.5601 11C11.5601 11.1354 11.534 11.2656 11.4819 11.3906C11.4299 11.5104 11.3569 11.6172 11.2632 11.7109C11.1746 11.7995 11.0679 11.8698 10.9429 11.9219C10.8231 11.974 10.6955 12 10.5601 12H1.63818C1.50277 12 1.37256 11.974 1.24756 11.9219C1.12777 11.8698 1.021 11.7995 0.927246 11.7109C0.838704 11.6172 0.768392 11.5104 0.716309 11.3906C0.664225 11.2656 0.638184 11.1354 0.638184 11C0.638184 10.9167 0.653809 10.8177 0.685059 10.7031C0.716309 10.5885 0.755371 10.4974 0.802246 10.4297L1.59912 9.33594V4H4.59912V0H16.5991V9H10.5991ZM2.59912 9H9.59912V5H2.59912V9ZM10.5601 10.9922C10.534 10.9349 10.4897 10.862 10.4272 10.7734C10.3647 10.6849 10.297 10.5938 10.2241 10.5C10.1512 10.4062 10.0783 10.3151 10.0054 10.2266C9.93766 10.1328 9.88298 10.0573 9.84131 10H2.35693C2.31527 10.0573 2.25798 10.1328 2.18506 10.2266C2.11735 10.3151 2.04704 10.4062 1.97412 10.5C1.9012 10.5938 1.8335 10.6849 1.771 10.7734C1.7085 10.862 1.66423 10.9349 1.63818 10.9922V11H10.5601V10.9922ZM10.5991 4V8H15.5991V1H5.59912V4H10.5991Z" fill="#323130"/>
</svg>
