<svg width="12" height="12" viewBox="0 0 12 12" fill="none" xmlns="http://www.w3.org/2000/svg">
<path d="M6 12C6 11.4479 6.07031 10.9167 6.21094 10.4062C6.35677 9.89583 6.5599 9.41927 6.82031 8.97656C7.08073 8.52865 7.39323 8.1224 7.75781 7.75781C8.1224 7.39323 8.52604 7.08073 8.96875 6.82031C9.41667 6.5599 9.89583 6.35938 10.4062 6.21875C10.9167 6.07292 11.4479 6 12 6V7C11.5417 7 11.099 7.0599 10.6719 7.17969C10.2448 7.29948 9.84635 7.46875 9.47656 7.6875C9.10677 7.90104 8.76823 8.16146 8.46094 8.46875C8.15885 8.77083 7.89844 9.10677 7.67969 9.47656C7.46615 9.84635 7.29948 10.2448 7.17969 10.6719C7.0599 11.099 7 11.5417 7 12H6ZM3 12C3 11.1719 3.10677 10.375 3.32031 9.60938C3.53385 8.83854 3.83594 8.11979 4.22656 7.45312C4.61719 6.78646 5.08594 6.17969 5.63281 5.63281C6.17969 5.08594 6.78646 4.61719 7.45312 4.22656C8.11979 3.83594 8.83594 3.53385 9.60156 3.32031C10.3724 3.10677 11.1719 3 12 3V4C11.2656 4 10.5573 4.09635 9.875 4.28906C9.19792 4.47656 8.5625 4.74479 7.96875 5.09375C7.375 5.44271 6.83333 5.86198 6.34375 6.35156C5.85938 6.83594 5.44271 7.375 5.09375 7.96875C4.74479 8.5625 4.47396 9.20052 4.28125 9.88281C4.09375 10.5599 4 11.2656 4 12H3ZM0 12C0 10.8958 0.143229 9.83333 0.429688 8.8125C0.716146 7.79167 1.11979 6.83594 1.64062 5.94531C2.16146 5.05469 2.78646 4.24479 3.51562 3.51562C4.24479 2.78646 5.05469 2.16146 5.94531 1.64062C6.83594 1.11979 7.79167 0.716146 8.8125 0.429688C9.83333 0.143229 10.8958 0 12 0V1C10.9896 1 10.0156 1.13281 9.07812 1.39844C8.14583 1.65885 7.27083 2.02865 6.45312 2.50781C5.64062 2.98177 4.89844 3.55469 4.22656 4.22656C3.55469 4.89844 2.97917 5.64323 2.5 6.46094C2.02604 7.27344 1.65625 8.14844 1.39062 9.08594C1.13021 10.0182 1 10.9896 1 12H0ZM10.5 9C10.7083 9 10.9036 9.03906 11.0859 9.11719C11.2682 9.19531 11.4271 9.30208 11.5625 9.4375C11.6979 9.57292 11.8047 9.73177 11.8828 9.91406C11.9609 10.0964 12 10.2917 12 10.5C12 10.7083 11.9609 10.9036 11.8828 11.0859C11.8047 11.2682 11.6979 11.4271 11.5625 11.5625C11.4271 11.6979 11.2682 11.8047 11.0859 11.8828C10.9036 11.9609 10.7083 12 10.5 12C10.2917 12 10.0964 11.9609 9.91406 11.8828C9.73177 11.8047 9.57292 11.6979 9.4375 11.5625C9.30208 11.4271 9.19531 11.2682 9.11719 11.0859C9.03906 10.9036 9 10.7083 9 10.5C9 10.2917 9.03906 10.0964 9.11719 9.91406C9.19531 9.73177 9.30208 9.57292 9.4375 9.4375C9.57292 9.30208 9.73177 9.19531 9.91406 9.11719C10.0964 9.03906 10.2917 9 10.5 9Z" fill="#323130"/>
</svg>
